<mxfile host="app.diagrams.net" modified="2024-01-27T06:27:00.663Z" agent="Mozilla/5.0 (Macintosh; Intel Mac OS X 10_15_7) AppleWebKit/605.1.15 (KHTML, like Gecko) Version/17.2.1 Safari/605.1.15" version="22.1.20" etag="USIM2lguR8zhyt1JGrmf" type="github">
  <diagram name="Page-1" id="q2z-NUhJStqPPOeSqmdP">
    <mxGraphModel>
      <root>
        <mxCell id="0" />
        <mxCell id="1" parent="0" />
      </root>
    </mxGraphModel>
  </diagram>
</mxfile>
